Count of Monte Cristo, The (2002)        
 
 
  Verenigd Koninkrijk / Verenigde Staten / Ierland
Avontuur / Actie
131 minuten

geregisseerd door Kevin Reynolds
met James Caviezel, Guy Pearce en Richard Harris

De schipper Edmond Dantes wordt onterecht veroordeeld van verraad na een brief aangenomen te hebben van de verbannen Napoleon. Zijn 'beste vriend' Fernand is verantwoordelijk voor het feit dat hij opgepakt wordt, aangezien hij uit is op de verloofde van Edmond. Dantes komt vast te zitten op het Chateau d'If, waar hij wraak zweert op de personen die verantwoordelijk zijn voor zijn arrestatie.


English

'The Count of Monte Cristo' is a remake of the Alexander Dumas tale by the same name. Dantes, a sailor who is falsely accused of treason by his best friend Fernand, who wants Dantes' girlfriend Mercedes for himself. Dantes is imprisoned on the island prison of Chateau d'If for 13 years, where he plots revenge against those who betrayed him. With the help of another prisoner, he escapes the island and proceeds to transform himself into the wealthy Count of Monte Cristo as part of his plan to exact revenge.




Menu: Nee. 
Audio: Engels 5.1DD. 
Subs: NL instelbaar. 
Cover:
Bestand: VTS. 
Spotinformatie 
Categorie : Beeld 
Formaat : DVD5 
Bron : Retail
 Ondertitels : Nederlands (instelbaar)

Format                           : MPEG-PS
File size                        : 1 024 MiB
Duration                         : 29mn 57s
Overall bit rate                 : 4 780 Kbps

Video
ID                               : 224 (0xE0)
Format                           : MPEG Video
Format version                   : Version 2
Format profile                   : Main@Main
Format settings, Matrix          : Default
Duration                         : 29mn 57s
Bit rate mode                    : Variable
Bit rate                         : 4 206 Kbps
Nominal bit rate                 : 7 000 Kbps
Width                            : 720 pixels
Height                           : 576 pixels
Display aspect ratio             : 16/9
Frame rate                       : 25.000 fps
Standard                         : PAL
Colorimetry                      : 4:2:0
Scan type                        : Interlaced
Scan order                       : Top Field First
Bits/(Pixel*Frame)               : 0.406
Stream size                      : 901 MiB (88%)

Audio
ID                               : 128 (0x80)
Format                           : AC-3
Format/Info                      : Audio Coding 3
Duration                         : 29mn 56s
Bit rate mode                    : Constant
Bit rate                         : 384 Kbps
Channel(s)                       : 6 channels
Channel positions                : Front: L C R, Surround: L R, LFE
Sampling rate                    : 48.0 KHz
Stream size                      : 82.3 MiB (8%)

Text
ID                               : 38 (0x26)
Format                           : RLE
Format/Info                      : Run-length encoding

Menu
Format                           : DVD-Video
 
 
Genre : Actie
Avontuur
 
Weblink : http://www.moviemeter.nl/film/886 
Weblink : http://www.imdb.com/title/tt0245844

 
***************************************** 

Brought to you by 
Pioen 
2Lions Team 



meer zien?? 
Kom dan eens kijken op ons forum 
 
http://www.2lions.ons-forum.nl 

2Lions-Team for all your Dutch MOVIES and more 

***************************************** 

DON T HIT AND RUN Niet gelijk afhaken als de film binnen is blijf seeden.